# xmcd
#
# Track frame offsets: 
#        150
#        20110
#        41685
#        57305
#        70617
#        87617
#        100867
#        115897
#        132412
#        150322
#        165960
#        178935
#
# Disc length: 2584 seconds
#
# Revision: 4
# Processed by: cddbd v1.5.2PL0 Copyright (c) Steve Scherf et al.
# Submitted via: ExactAudioCopy v1.0b6
#
DISCID=9d0a160c
DTITLE=Shaver - Electric Shaver
DYEAR=1999
DGENRE=Country
TTITLE0=Thunderbird
TTITLE1=Try And Try Again
TTITLE2=Leanin' Toward The Blues
TTITLE3=New York City
TTITLE4=You Wouldn't Know Love (If You Fell In It)
TTITLE5=Slave At The Feet Of The Queen
TTITLE6=People And Their Problems
TTITLE7=Manual Labor
TTITLE8=I'll Be Here
TTITLE9=Heart To Heart
TTITLE10=Way Down Texas Way
TTITLE11=She Can Dance
EXTD=Mario´s Musik
EXTT0=
EXTT1=
EXTT2=
EXTT3=
EXTT4=
EXTT5=
EXTT6=
EXTT7=
EXTT8=
EXTT9=
EXTT10=
EXTT11=
PLAYORDER=
